<mxfile host="65bd71144e">
    <diagram id="w4SG8VJ3u9YHG5O8JcCi" name="Main">
        <mxGraphModel dx="2231" dy="619" grid="1" gridSize="10" guides="1" tooltips="1" connect="1" arrows="1" fold="1" page="1" pageScale="1" pageWidth="850" pageHeight="1100" math="0" shadow="0">
            <root>
                <mxCell id="0"/>
                <mxCell id="1" parent="0"/>
                <mxCell id="2" value="System Design" style="shape=umlFrame;whiteSpace=wrap;html=1;pointerEvents=0;width=120;height=20;" parent="1" vertex="1">
                    <mxGeometry x="-620" y="190" width="910" height="560" as="geometry"/>
                </mxCell>
                <mxCell id="57" value="" style="rounded=0;whiteSpace=wrap;html=1;fillStyle=auto;pointerEvents=0;strokeColor=default;fontFamily=Helvetica;fontSize=12;fontColor=#333333;fillColor=none;gradientColor=none;gradientDirection=west;dashed=1;" vertex="1" parent="1">
                    <mxGeometry x="40" y="230" width="220" height="420" as="geometry"/>
                </mxCell>
                <mxCell id="52" value="" style="rounded=0;whiteSpace=wrap;html=1;fillStyle=auto;pointerEvents=0;strokeColor=default;fontFamily=Helvetica;fontSize=12;fontColor=#333333;fillColor=none;gradientColor=none;gradientDirection=west;dashed=1;" vertex="1" parent="1">
                    <mxGeometry x="-590" y="230" width="550" height="420" as="geometry"/>
                </mxCell>
                <mxCell id="17" value="" style="group;rounded=1;verticalAlign=middle;fillColor=none;strokeColor=#b85450;fillStyle=auto;gradientDirection=west;gradientColor=default;container=0;" parent="1" vertex="1" connectable="0">
                    <mxGeometry x="-235" y="440" width="140" height="110" as="geometry"/>
                </mxCell>
                <mxCell id="3" value="«e&lt;i&gt;xecutable&lt;/i&gt;»&lt;br&gt;&lt;b&gt;Application&lt;/b&gt;" style="html=1;dropTarget=0;whiteSpace=wrap;fillColor=#f8cecc;strokeColor=#b85450;fillStyle=auto;gradientDirection=west;gradientColor=#ffebeb;rounded=1;" parent="1" vertex="1">
                    <mxGeometry x="-565" y="260" width="140" height="70" as="geometry"/>
                </mxCell>
                <mxCell id="4" value="" style="shape=module;jettyWidth=8;jettyHeight=4;" parent="3" vertex="1">
                    <mxGeometry x="1" width="20" height="20" relative="1" as="geometry">
                        <mxPoint x="-27" y="7" as="offset"/>
                    </mxGeometry>
                </mxCell>
                <mxCell id="9" value="" style="ellipse;whiteSpace=wrap;html=1;align=center;aspect=fixed;fillColor=none;strokeColor=none;resizable=0;perimeter=centerPerimeter;rotatable=0;allowArrows=0;points=[];outlineConnect=1;" parent="1" vertex="1">
                    <mxGeometry x="-170" y="360" width="10" height="10" as="geometry"/>
                </mxCell>
                <mxCell id="15" value="" style="group;strokeColor=default;rounded=1;fillColor=#FFA8DC;verticalAlign=middle;fillStyle=auto;gradientDirection=west;fontColor=#333333;container=0;" parent="1" vertex="1" connectable="0">
                    <mxGeometry x="-565" y="440" width="140" height="110" as="geometry"/>
                </mxCell>
                <mxCell id="22" value="" style="rounded=0;orthogonalLoop=1;jettySize=auto;html=1;endArrow=none;endFill=0;sketch=0;sourcePerimeterSpacing=0;targetPerimeterSpacing=0;exitX=0.5;exitY=0;exitDx=0;exitDy=0;" parent="1" source="10" target="24" edge="1">
                    <mxGeometry relative="1" as="geometry">
                        <mxPoint x="-285" y="445" as="sourcePoint"/>
                    </mxGeometry>
                </mxCell>
                <mxCell id="24" value="" style="ellipse;whiteSpace=wrap;html=1;align=center;aspect=fixed;resizable=0;points=[];outlineConnect=0;sketch=0;fillColor=#e1d5e7;strokeColor=#9673a6;" parent="1" vertex="1">
                    <mxGeometry x="-500" y="410" width="10" height="10" as="geometry"/>
                </mxCell>
                <mxCell id="28" value="" style="rounded=0;orthogonalLoop=1;jettySize=auto;html=1;endArrow=halfCircle;endFill=0;endSize=6;strokeWidth=1;sketch=0;exitX=0.5;exitY=1;exitDx=0;exitDy=0;" parent="1" source="3" edge="1">
                    <mxGeometry relative="1" as="geometry">
                        <mxPoint x="-480" y="370" as="sourcePoint"/>
                        <mxPoint x="-495" y="370" as="targetPoint"/>
                    </mxGeometry>
                </mxCell>
                <mxCell id="33" value="Logging" style="edgeLabel;html=1;align=center;verticalAlign=middle;resizable=0;points=[];" parent="28" vertex="1" connectable="0">
                    <mxGeometry x="0.8346" y="7" relative="1" as="geometry">
                        <mxPoint x="23" y="-2" as="offset"/>
                    </mxGeometry>
                </mxCell>
                <mxCell id="30" value="log/trace message" style="html=1;verticalAlign=bottom;endArrow=open;dashed=1;endSize=8;" parent="1" target="24" edge="1">
                    <mxGeometry x="0.5" y="60" relative="1" as="geometry">
                        <mxPoint x="-495" y="370" as="sourcePoint"/>
                        <mxPoint x="-465" y="450" as="targetPoint"/>
                        <mxPoint as="offset"/>
                    </mxGeometry>
                </mxCell>
                <mxCell id="34" value="Logging" style="edgeLabel;html=1;align=center;verticalAlign=middle;resizable=0;points=[];" parent="1" vertex="1" connectable="0">
                    <mxGeometry x="-465" y="415.00076923076915" as="geometry"/>
                </mxCell>
                <mxCell id="36" value="" style="endArrow=block;dashed=1;endFill=0;endSize=12;html=1;exitX=0;exitY=0.25;exitDx=0;exitDy=0;entryX=1;entryY=0.25;entryDx=0;entryDy=0;" parent="1" source="5" target="10" edge="1">
                    <mxGeometry width="160" relative="1" as="geometry">
                        <mxPoint x="-415" y="450" as="sourcePoint"/>
                        <mxPoint x="-255" y="450" as="targetPoint"/>
                    </mxGeometry>
                </mxCell>
                <mxCell id="37" value="control messages" style="edgeLabel;html=1;align=center;verticalAlign=middle;resizable=0;points=[];" parent="36" vertex="1" connectable="0">
                    <mxGeometry x="0.0974" relative="1" as="geometry">
                        <mxPoint as="offset"/>
                    </mxGeometry>
                </mxCell>
                <mxCell id="39" value="log/trace messages" style="endArrow=open;endSize=12;dashed=1;html=1;exitX=1;exitY=0.5;exitDx=0;exitDy=0;" parent="1" source="14" edge="1">
                    <mxGeometry width="160" relative="1" as="geometry">
                        <mxPoint x="-415" y="450" as="sourcePoint"/>
                        <mxPoint x="-241" y="525" as="targetPoint"/>
                    </mxGeometry>
                </mxCell>
                <mxCell id="42" value="" style="group;rounded=1;verticalAlign=middle;fillColor=#f8cecc;strokeColor=#b85450;fillStyle=auto;gradientDirection=west;gradientColor=#ffebeb;container=0;" parent="1" vertex="1" connectable="0">
                    <mxGeometry x="90" y="440" width="140" height="110" as="geometry"/>
                </mxCell>
                <mxCell id="46" value="Log Storage" style="html=1;rounded=1;gradientColor=#f9d8b9;gradientDirection=south;" parent="1" vertex="1">
                    <mxGeometry x="107.5" y="580" width="105" height="30" as="geometry"/>
                </mxCell>
                <mxCell id="47" value="" style="endArrow=block;dashed=1;endFill=0;endSize=12;html=1;exitX=0;exitY=0.25;exitDx=0;exitDy=0;entryX=1;entryY=0.25;entryDx=0;entryDy=0;" parent="1" source="43" target="5" edge="1">
                    <mxGeometry width="160" relative="1" as="geometry">
                        <mxPoint x="-225" y="477.5" as="sourcePoint"/>
                        <mxPoint x="-90" y="468" as="targetPoint"/>
                    </mxGeometry>
                </mxCell>
                <mxCell id="48" value="control messages" style="edgeLabel;html=1;align=center;verticalAlign=middle;resizable=0;points=[];" parent="47" vertex="1" connectable="0">
                    <mxGeometry x="0.0974" relative="1" as="geometry">
                        <mxPoint as="offset"/>
                    </mxGeometry>
                </mxCell>
                <mxCell id="49" value="log/trace messages" style="endArrow=open;endSize=12;dashed=1;html=1;exitX=1;exitY=0.75;exitDx=0;exitDy=0;entryX=0;entryY=0.75;entryDx=0;entryDy=0;" parent="1" source="5" target="43" edge="1">
                    <mxGeometry width="160" relative="1" as="geometry">
                        <mxPoint x="-425" y="580" as="sourcePoint"/>
                        <mxPoint x="-221" y="580" as="targetPoint"/>
                    </mxGeometry>
                </mxCell>
                <mxCell id="50" value="fetch" style="endArrow=open;endSize=12;dashed=1;html=1;entryX=0;entryY=0.5;entryDx=0;entryDy=0;exitX=0.5;exitY=1;exitDx=0;exitDy=0;" parent="1" source="51" target="46" edge="1">
                    <mxGeometry x="-0.1792" y="1" width="160" relative="1" as="geometry">
                        <mxPoint x="-170" y="580" as="sourcePoint"/>
                        <mxPoint x="100" y="532.5" as="targetPoint"/>
                        <Array as="points">
                            <mxPoint x="-160" y="595"/>
                        </Array>
                        <mxPoint as="offset"/>
                    </mxGeometry>
                </mxCell>
                <mxCell id="10" value="«libraries»&lt;br&gt;&lt;b&gt;DLT Libraries&lt;br&gt;&lt;/b&gt;&lt;br&gt;&lt;br&gt;" style="html=1;dropTarget=0;rounded=1;fillColor=#f8cecc;strokeColor=#b85450;fillStyle=auto;gradientDirection=west;gradientColor=#ffebeb;" parent="1" vertex="1">
                    <mxGeometry x="-565" y="440" width="140" height="110" as="geometry"/>
                </mxCell>
                <mxCell id="11" value="" style="shape=module;jettyWidth=8;jettyHeight=4;" parent="10" vertex="1">
                    <mxGeometry x="1" width="20" height="20" relative="1" as="geometry">
                        <mxPoint x="-27" y="7" as="offset"/>
                    </mxGeometry>
                </mxCell>
                <mxCell id="14" value="Buffer" style="html=1;rounded=1;gradientColor=#f9d8b9;gradientDirection=south;" parent="1" vertex="1">
                    <mxGeometry x="-547.5" y="510" width="102.5" height="30" as="geometry"/>
                </mxCell>
                <mxCell id="5" value="«executable»&lt;br&gt;&lt;b&gt;DLT Daemon&lt;br&gt;&lt;br&gt;&lt;br&gt;&lt;/b&gt;" style="html=1;dropTarget=0;whiteSpace=wrap;rounded=1;fillColor=#f8cecc;strokeColor=#b85450;fillStyle=auto;gradientDirection=west;gradientColor=#ffebeb;" parent="1" vertex="1">
                    <mxGeometry x="-235" y="440" width="140" height="110" as="geometry"/>
                </mxCell>
                <mxCell id="6" value="" style="shape=module;jettyWidth=8;jettyHeight=4;" parent="5" vertex="1">
                    <mxGeometry x="1" width="20" height="20" relative="1" as="geometry">
                        <mxPoint x="-27" y="7" as="offset"/>
                    </mxGeometry>
                </mxCell>
                <mxCell id="16" value="Buffer" style="html=1;rounded=1;gradientColor=#f9d8b9;gradientDirection=south;" parent="1" vertex="1">
                    <mxGeometry x="-217.5" y="510" width="105" height="30" as="geometry"/>
                </mxCell>
                <mxCell id="43" value="«executable»&lt;br&gt;&lt;b&gt;DLT Client&lt;br&gt;&lt;/b&gt;" style="html=1;dropTarget=0;whiteSpace=wrap;rounded=1;fillColor=#f8cecc;strokeColor=#b85450;fillStyle=auto;gradientDirection=west;gradientColor=#ffebeb;" parent="1" vertex="1">
                    <mxGeometry x="90" y="440" width="140" height="110" as="geometry"/>
                </mxCell>
                <mxCell id="44" value="" style="shape=module;jettyWidth=8;jettyHeight=4;" parent="43" vertex="1">
                    <mxGeometry x="1" width="20" height="20" relative="1" as="geometry">
                        <mxPoint x="-27" y="7" as="offset"/>
                    </mxGeometry>
                </mxCell>
                <mxCell id="56" value="Linux Ubuntu" style="text;html=1;align=center;verticalAlign=middle;resizable=0;points=[];autosize=1;strokeColor=none;fillColor=none;fontSize=12;fontFamily=Helvetica;fontColor=#333333;" vertex="1" parent="1">
                    <mxGeometry x="-360" y="230" width="90" height="30" as="geometry"/>
                </mxCell>
                <mxCell id="58" value="Client" style="text;html=1;align=center;verticalAlign=middle;resizable=0;points=[];autosize=1;strokeColor=none;fillColor=none;fontSize=12;fontFamily=Helvetica;fontColor=#333333;" vertex="1" parent="1">
                    <mxGeometry x="125" y="230" width="50" height="30" as="geometry"/>
                </mxCell>
                <mxCell id="59" value="&lt;blockquote style=&quot;margin: 0 0 0 40px; border: none; padding: 0px;&quot;&gt;&lt;/blockquote&gt;&lt;blockquote style=&quot;margin: 0 0 0 40px; border: none; padding: 0px;&quot;&gt;&lt;/blockquote&gt;&lt;pre&gt; Project: Funny Farm&lt;br&gt; Author: Sang, Tan Truong&lt;br&gt; File: SystemDesign.drawio&lt;/pre&gt;&lt;blockquote style=&quot;margin: 0 0 0 40px; border: none; padding: 0px;&quot;&gt;&lt;/blockquote&gt;&lt;blockquote style=&quot;margin: 0 0 0 40px; border: none; padding: 0px;&quot;&gt;&lt;/blockquote&gt;" style="rounded=1;whiteSpace=wrap;html=1;fillStyle=auto;pointerEvents=0;strokeColor=#1d3cd7;fontFamily=Helvetica;fontSize=12;fontColor=#333333;fillColor=none;gradientColor=none;gradientDirection=west;align=left;" vertex="1" parent="1">
                    <mxGeometry x="-590" y="670" width="230" height="60" as="geometry"/>
                </mxCell>
                <mxCell id="51" value="" style="fontStyle=0;labelPosition=right;verticalLabelPosition=middle;align=left;verticalAlign=middle;spacingLeft=2;rounded=1;strokeColor=default;" parent="1" vertex="1">
                    <mxGeometry x="-166" y="545" width="12" height="10" as="geometry"/>
                </mxCell>
                <mxCell id="41" value="" style="fontStyle=0;labelPosition=right;verticalLabelPosition=middle;align=left;verticalAlign=middle;spacingLeft=2;rounded=1;strokeColor=default;" parent="1" vertex="1">
                    <mxGeometry x="-241" y="520" width="12" height="10" as="geometry"/>
                </mxCell>
            </root>
        </mxGraphModel>
    </diagram>
</mxfile>